<?xml version="1.0" standalone="no"?>
<!DOCTYPE svg PUBLIC "-//W3C//DTD SVG 20010904//EN"
 "http://www.w3.org/TR/2001/REC-SVG-20010904/DTD/svg10.dtd">
<svg version="1.0" xmlns="http://www.w3.org/2000/svg"
 width="385.000000pt" height="300.000000pt" viewBox="0 0 385.000000 300.000000"
 preserveAspectRatio="xMidYMid meet">

<g transform="translate(0.000000,300.000000) scale(0.100000,-0.100000)"
fill="#000000" stroke="none">
<path d="M1360 2876 c0 -9 5 -16 10 -16 6 0 10 4 10 9 0 6 -4 13 -10 16 -5 3
-10 -1 -10 -9z"/>
<path d="M2486 2882 c-3 -6 -1 -14 5 -17 15 -10 25 3 12 16 -7 7 -13 7 -17 1z"/>
<path d="M1205 2834 c-41 -21 -66 -45 -77 -74 -8 -20 -11 -22 -20 -10 -8 12
-9 12 -4 -3 3 -10 6 -23 6 -28 0 -5 5 -9 11 -9 6 0 9 7 6 15 -5 11 0 13 22 9
44 -9 133 45 162 99 9 15 5 17 -33 17 -24 0 -56 -7 -73 -16z"/>
<path d="M2560 2819 c42 -59 155 -111 174 -80 25 40 -68 111 -147 111 l-48 0
21 -31z"/>
<path d="M1067 2789 c-24 -14 -49 -66 -42 -89 3 -10 1 -21 -5 -25 -5 -3 -10
-1 -10 6 0 7 -3 9 -6 6 -4 -4 -1 -13 6 -22 7 -8 9 -15 4 -15 -5 0 0 -7 10 -15
11 -8 36 -15 56 -15 38 0 122 37 128 57 4 15 -58 27 -108 20 l-39 -5 15 30 c8
16 14 40 12 53 -2 19 -6 22 -21 14z"/>
<path d="M2770 2776 c0 -13 -3 -26 -7 -29 -5 -2 -3 -2 4 -1 6 2 16 -9 21 -24
9 -27 9 -27 -30 -24 -52 5 -110 -6 -105 -21 6 -20 89 -57 129 -57 24 0 45 7
57 19 19 19 20 18 78 -32 32 -28 53 -45 46 -38 -6 8 -9 28 -6 47 4 26 -1 43
-21 74 -41 63 -73 46 -46 -24 10 -27 2 -34 -17 -15 -6 6 -9 18 -6 25 3 8 0 14
-6 14 -6 0 -11 -5 -11 -11 0 -5 -4 -8 -8 -5 -5 3 -7 18 -4 34 3 20 -4 37 -23
60 -32 38 -45 40 -45 8z"/>
<path d="M948 2713 c-37 -40 -50 -71 -43 -101 4 -22 -1 -34 -30 -62 -35 -34
-49 -64 -18 -39 15 12 16 12 11 -3 -5 -11 2 -20 22 -28 50 -21 139 11 194 69
l29 30 -27 7 c-39 9 -117 0 -154 -19 -46 -22 -39 -8 18 38 27 22 49 44 50 49
0 5 -6 3 -14 -3 -11 -9 -12 -2 -8 39 2 27 3 50 0 50 -2 0 -16 -12 -30 -27z"/>
<path d="M802 2628 c-41 -52 -58 -162 -27 -174 11 -5 5 -18 -27 -60 -22 -30
-42 -54 -44 -54 -1 0 0 15 2 33 6 35 -15 108 -31 114 -31 10 -70 -124 -53
-183 7 -28 44 -65 52 -52 1 2 9 19 19 38 16 32 17 33 14 8 -4 -25 0 -28 30
-34 45 -8 99 8 151 46 46 33 105 107 99 124 -4 11 -55 11 -114 1 -18 -3 -55
-21 -83 -40 -28 -19 -47 -29 -44 -22 7 12 74 97 84 107 8 8 11 92 5 128 -6 34
-16 40 -33 20z"/>
<path d="M3034 2626 c-3 -8 -4 -40 -2 -70 l3 -55 -23 21 c-15 15 -20 28 -16
42 6 20 5 20 -12 4 -16 -15 -20 -16 -47 -2 -36 19 -125 29 -164 19 l-28 -7 44
-39 c52 -47 137 -76 179 -61 16 5 26 16 26 26 -3 27 9 18 68 -57 54 -69 68
-98 30 -64 -43 39 -202 82 -216 58 -3 -5 9 -31 27 -57 52 -78 166 -136 233
-120 22 6 25 11 19 34 -11 45 10 15 58 -83 48 -98 83 -193 73 -202 -3 -3 -1
-12 4 -18 27 -32 54 -325 29 -309 -8 5 -8 1 0 -14 6 -11 11 -37 11 -57 0 -29
-3 -36 -15 -31 -12 4 -13 2 -3 -13 9 -15 8 -38 -5 -102 -9 -46 -21 -85 -27
-87 -5 -2 -8 -8 -4 -13 6 -10 -17 -79 -26 -79 -4 0 -17 11 -30 25 -19 21 -21
25 -7 25 12 0 17 8 17 26 0 21 -4 25 -22 22 -34 -5 -33 -32 1 -71 36 -40 37
-52 14 -104 -23 -49 -22 -48 -34 -36 -6 6 -12 40 -13 75 -3 93 -48 179 -133
258 -48 44 -69 57 -75 48 -4 -7 -8 -48 -8 -90 0 -59 6 -94 25 -144 14 -36 25
-70 25 -75 0 -20 -17 -6 -48 40 -18 26 -43 58 -56 70 l-24 23 -15 -49 c-9 -26
-19 -72 -22 -101 -6 -45 -11 -55 -33 -63 -22 -8 -29 -6 -48 18 l-21 27 -21
-41 c-20 -39 -25 -42 -102 -62 -287 -78 -465 -105 -690 -105 -219 0 -408 29
-692 106 -72 19 -77 23 -94 59 -9 22 -19 39 -22 39 -2 0 -13 -11 -23 -24 -17
-22 -23 -24 -49 -14 -26 9 -30 15 -30 46 0 37 -24 139 -35 150 -7 8 -72 -56
-97 -96 -29 -48 -46 -26 -19 25 30 59 45 157 35 222 l-9 54 -53 -42 c-93 -74
-152 -182 -152 -279 0 -27 -6 -57 -14 -68 -14 -18 -16 -16 -35 29 -24 57 -25
68 -8 87 10 12 9 12 -5 1 -16 -12 -19 -10 -29 15 -5 16 -8 39 -6 51 2 12 0 21
-6 20 -13 -3 -35 81 -41 164 -3 37 -9 74 -12 83 -4 10 1 25 12 37 16 18 16 19
1 13 -15 -5 -17 1 -16 42 0 27 5 76 9 109 5 33 11 77 14 98 3 20 10 46 16 57
6 11 9 20 6 20 -3 0 1 21 9 47 11 36 12 58 3 97 -12 59 -57 148 -72 143 -29
-10 -47 -156 -25 -214 13 -36 49 -74 62 -66 5 3 7 -3 3 -13 -5 -18 -36 -189
-36 -203 0 -3 -11 17 -25 44 -13 28 -32 59 -42 70 -27 30 -83 75 -94 75 -18 0
-10 -128 13 -187 27 -74 87 -137 123 -131 20 4 24 1 23 -16 -1 -12 2 -48 6
-81 l8 -59 -40 51 c-47 58 -81 85 -146 113 l-46 19 0 -37 c1 -79 75 -210 143
-250 45 -27 97 -36 97 -17 0 8 5 15 10 15 6 0 10 -13 10 -29 0 -17 4 -32 9
-35 5 -3 11 -16 14 -28 2 -13 12 -41 21 -63 l17 -40 -28 31 c-59 66 -178 124
-255 124 -33 0 -34 -8 -8 -61 58 -113 193 -203 279 -184 24 5 27 10 24 33 -4
23 -3 24 7 9 15 -24 4 -54 -23 -61 -12 -3 -71 -8 -132 -10 -60 -2 -137 -12
-169 -20 -54 -15 -151 -58 -168 -74 -4 -4 28 -7 70 -7 72 0 172 -20 172 -34
-1 -3 -66 -53 -145 -110 -80 -58 -145 -105 -145 -106 0 -1 33 4 73 11 101 19
272 28 342 19 53 -6 57 -9 41 -20 -16 -12 -14 -16 31 -49 72 -53 132 -71 244
-71 89 0 98 2 137 29 41 28 41 28 24 54 l-17 27 27 -20 c15 -11 28 -23 28 -27
0 -5 5 -8 12 -8 6 0 25 -10 42 -23 17 -13 65 -43 106 -67 41 -24 77 -46 80
-50 3 -4 16 -10 30 -13 14 -3 77 -24 140 -45 63 -22 165 -50 225 -62 61 -12
111 -24 113 -25 2 -2 -2 -14 -8 -27 l-11 -23 19 24 c18 22 23 24 63 15 l44 -9
-50 -29 c-54 -32 -172 -146 -194 -189 -13 -25 -13 -29 3 -45 17 -16 19 -15 49
23 55 69 160 175 194 196 22 14 42 19 57 15 38 -9 123 -82 174 -148 85 -111
78 -104 96 -89 9 7 16 22 16 32 0 25 -166 191 -207 208 -18 7 -33 17 -33 22 0
15 69 22 85 9 13 -11 14 -10 10 2 -5 12 16 19 107 37 62 12 155 36 205 52 51
17 98 27 104 23 8 -4 9 -3 5 4 -4 7 10 16 36 24 24 6 45 15 48 18 3 4 32 22
65 40 52 30 132 80 215 137 l25 17 -19 -22 c-18 -21 -18 -23 -1 -42 56 -62
226 -67 338 -11 34 17 73 40 87 50 25 20 25 20 5 34 -18 14 -14 16 50 22 78 9
226 0 332 -19 40 -7 70 -10 68 -6 -3 4 -66 51 -140 105 -74 53 -137 100 -140
105 -8 13 139 42 194 38 55 -3 56 4 3 31 -74 38 -174 61 -281 67 -176 9 -192
15 -171 66 8 22 9 22 9 -4 1 -21 7 -29 26 -34 90 -23 252 96 294 217 l11 32
-55 -6 c-72 -7 -152 -45 -209 -97 -50 -46 -55 -46 -29 3 9 18 16 36 15 40 -1
4 3 18 10 30 6 12 12 30 13 39 2 23 15 36 15 16 0 -12 7 -14 38 -8 51 9 73 22
117 71 43 48 80 125 90 187 6 35 4 42 -9 42 -37 0 -117 -53 -171 -112 -45 -51
-55 -58 -50 -37 6 24 10 54 14 116 1 15 6 20 19 17 32 -8 78 32 111 97 27 54
31 73 31 141 0 43 -4 78 -9 78 -20 0 -103 -88 -130 -139 l-29 -54 -7 66 c-4
36 -4 71 0 78 5 8 4 10 -3 5 -8 -5 -12 1 -12 14 0 12 -5 30 -10 41 -9 16 -7
19 10 19 52 0 84 130 55 224 -10 31 -22 56 -26 56 -18 0 -62 -82 -67 -125 -2
-25 -9 -45 -13 -45 -5 0 -9 6 -9 13 0 6 -11 34 -25 61 l-24 49 21 28 c17 23
20 37 15 80 -7 53 -35 120 -54 126 -15 5 -24 -22 -32 -91 l-6 -58 -37 53 c-34
49 -35 54 -21 76 24 36 0 128 -41 162 -13 11 -17 11 -22 -3z m-1973 -1852 c19
-18 28 -21 36 -13 14 14 47 4 38 -11 -9 -15 14 -40 36 -40 11 0 19 9 21 23 3
22 3 22 21 2 10 -11 28 -35 40 -54 37 -58 54 -62 90 -19 27 31 37 35 64 31 26
-4 34 -12 48 -49 17 -44 74 -104 100 -104 15 0 55 68 55 95 0 14 10 15 78 8
100 -10 397 -10 489 0 l72 8 7 -28 c4 -15 15 -43 26 -60 15 -26 23 -31 37 -24
32 18 74 66 91 107 14 33 25 42 51 48 18 3 33 5 34 4 27 -43 49 -68 60 -68 16
0 71 61 80 89 7 24 45 29 45 5 0 -10 7 -14 23 -12 16 2 23 11 25 31 4 29 13
33 42 17 15 -8 22 -5 37 14 24 32 59 42 67 20 7 -19 -5 -36 -47 -66 -24 -17
-31 -18 -38 -7 -7 11 -9 9 -9 -8 0 -22 -55 -60 -167 -117 -48 -24 -53 -25 -54
-9 0 15 -2 15 -9 -3 -5 -12 -25 -25 -51 -33 -24 -7 -53 -17 -64 -22 -28 -11
-125 -39 -133 -37 -4 1 -14 -2 -22 -5 -8 -4 -54 -15 -102 -25 -78 -17 -88 -17
-88 -3 0 13 -2 13 -12 -1 -11 -14 -110 -49 -143 -50 -5 0 -37 7 -70 16 -33 9
-78 19 -100 22 -22 4 -45 10 -51 15 -6 5 -13 7 -16 4 -10 -10 -120 19 -125 32
-4 10 -8 11 -13 4 -11 -18 -140 25 -140 47 0 13 -2 14 -9 3 -9 -14 -27 -11
-91 16 -63 26 -114 52 -165 83 -27 17 -56 33 -62 36 -7 4 -13 13 -13 21 0 8
-5 11 -10 8 -6 -4 -28 7 -49 24 -29 23 -38 36 -34 51 7 25 36 19 74 -16z"/>
<path d="M1374 636 c-9 -24 4 -48 23 -44 12 2 18 12 18 28 0 29 -32 41 -41 16z"/>
<path d="M2450 635 c-17 -20 -5 -45 20 -45 11 0 23 7 26 15 6 15 -11 45 -26
45 -4 0 -13 -7 -20 -15z"/>
<path d="M1627 533 c-4 -3 -7 -15 -7 -25 0 -12 7 -18 24 -18 24 0 41 23 30 41
-6 10 -38 12 -47 2z"/>
<path d="M1710 515 c0 -23 4 -25 34 -23 31 2 33 4 23 25 -15 33 -57 32 -57 -2z"/>
<path d="M2100 525 c-12 -14 -11 -18 1 -26 23 -15 54 -6 54 16 0 26 -37 32
-55 10z"/>
<path d="M2184 518 c-10 -12 -13 -18 -6 -14 6 4 12 2 12 -3 0 -13 47 -15 54
-2 10 15 -5 41 -24 41 -9 0 -25 -10 -36 -22z"/>
<path d="M980 2610 c0 -5 5 -10 10 -10 6 0 10 5 10 10 0 6 -4 10 -10 10 -5 0
-10 -4 -10 -10z"/>
<path d="M2865 2610 c3 -5 10 -10 16 -10 5 0 9 5 9 10 0 6 -7 10 -16 10 -8 0
-12 -4 -9 -10z"/>
<path d="M865 2570 c-3 -5 -1 -10 4 -10 6 0 11 5 11 10 0 6 -2 10 -4 10 -3 0
-8 -4 -11 -10z"/>
<path d="M830 2460 c0 -5 7 -10 15 -10 8 0 15 5 15 10 0 6 -7 10 -15 10 -8 0
-15 -4 -15 -10z"/>
<path d="M3000 2460 c0 -5 7 -10 15 -10 8 0 15 5 15 10 0 6 -7 10 -15 10 -8 0
-15 -4 -15 -10z"/>
<path d="M735 2430 c4 -6 11 -8 16 -5 14 9 11 15 -7 15 -8 0 -12 -5 -9 -10z"/>
<path d="M3110 2430 c0 -5 5 -10 10 -10 6 0 10 5 10 10 0 6 -4 10 -10 10 -5 0
-10 -4 -10 -10z"/>
<path d="M803 2251 c-104 -36 -203 -137 -203 -208 0 -38 62 -38 136 0 62 32
163 164 164 215 0 17 -36 15 -97 -7z"/>
<path d="M2960 2267 c0 -23 54 -122 86 -156 61 -68 126 -99 197 -93 22 2 23
51 3 91 -21 41 -91 100 -150 127 -50 23 -136 42 -136 31z"/>
<path d="M590 2235 c0 -8 7 -15 15 -15 8 0 15 7 15 15 0 8 -7 15 -15 15 -8 0
-15 -7 -15 -15z"/>
<path d="M626 2194 c-15 -32 -25 -62 -23 -67 2 -6 15 18 30 53 35 79 28 91 -7
14z"/>
<path d="M3245 2241 c-7 -12 12 -24 25 -16 11 7 4 25 -10 25 -5 0 -11 -4 -15
-9z"/>
<path d="M672 2228 c5 -15 28 -18 29 -3 0 6 -7 12 -17 13 -10 3 -15 -1 -12
-10z"/>
<path d="M3160 2225 c0 -8 7 -15 15 -15 8 0 15 7 15 15 0 8 -7 15 -15 15 -8 0
-15 -7 -15 -15z"/>
<path d="M772 2035 c-68 -32 -155 -114 -187 -178 -24 -50 -33 -119 -17 -144
11 -17 74 -1 121 30 47 32 116 132 136 200 16 54 20 117 8 117 -5 0 -32 -11
-61 -25z"/>
<path d="M3025 2008 c9 -72 54 -167 106 -223 48 -52 77 -69 130 -79 35 -6 36
-6 42 29 17 104 -93 253 -227 309 -57 24 -59 22 -51 -36z"/>
<path d="M480 2004 c-9 -10 -10 -18 -2 -26 12 -12 32 -2 32 17 0 21 -16 26
-30 9z"/>
<path d="M3350 1996 c0 -15 24 -28 34 -19 13 14 5 33 -14 33 -11 0 -20 -6 -20
-14z"/>
<path d="M591 1967 c-8 -10 -7 -18 2 -31 12 -16 14 -16 26 -2 14 16 9 46 -7
46 -5 0 -15 -6 -21 -13z"/>
<path d="M3240 1964 c-18 -20 6 -50 26 -33 8 6 14 17 14 24 0 19 -27 26 -40 9z"/>
<path d="M2580 1899 c-11 -20 -11 -20 14 -4 30 20 32 25 11 25 -8 0 -19 -9
-25 -21z"/>
<path d="M1343 1855 c-104 -45 -41 -187 71 -159 38 9 32 21 -8 16 -60 -7 -97
60 -66 119 14 25 75 26 89 2 9 -16 10 -16 11 3 0 14 -8 24 -22 28 -31 8 -38 7
-75 -9z"/>
<path d="M1514 1856 c-17 -8 -34 -21 -38 -31 -9 -25 -7 -74 4 -95 13 -24 70
-43 104 -34 42 10 40 23 -2 17 -34 -4 -42 -1 -60 22 -26 33 -28 62 -6 93 18
26 71 31 80 7 8 -21 24 -19 24 4 0 13 -10 20 -31 25 -40 8 -38 8 -75 -8z"/>
<path d="M948 1852 c10 -7 13 -29 10 -81 l-3 -71 47 0 c39 0 50 4 63 24 17 26
12 51 -12 61 -14 5 -14 7 2 18 9 8 16 22 13 33 -3 16 -13 19 -68 22 -40 1 -60
-1 -52 -6z m85 -16 c7 -19 -17 -51 -31 -42 -20 12 -15 56 7 56 10 0 21 -6 24
-14z m2 -91 c0 -23 -5 -31 -22 -33 -20 -3 -23 1 -23 33 0 32 3 36 23 33 17 -2
22 -10 22 -33z"/>
<path d="M1146 1786 c-15 -42 -33 -77 -40 -80 -6 -2 3 -4 19 -4 17 0 24 2 18
5 -21 8 5 43 32 43 27 0 53 -35 32 -43 -6 -3 6 -6 28 -6 22 0 35 3 30 7 -6 4
-24 38 -41 76 -16 38 -34 71 -40 73 -5 2 -22 -30 -38 -71z m38 -24 c-25 -6
-32 2 -22 28 l9 25 14 -25 c12 -21 12 -25 -1 -28z"/>
<path d="M1685 1793 c-15 -37 -31 -74 -37 -80 -8 -10 -5 -13 10 -13 13 0 20 5
17 13 -8 22 11 39 41 35 23 -2 29 -8 28 -25 0 -20 4 -23 35 -23 20 0 31 4 24
8 -7 4 -25 39 -42 77 -16 38 -34 71 -39 73 -5 1 -22 -28 -37 -65z m35 8 c0 -5
3 -16 6 -25 4 -12 0 -16 -16 -16 -16 0 -20 4 -16 16 3 9 6 20 6 25 0 5 5 9 10
9 6 0 10 -4 10 -9z"/>
<path d="M1840 1845 c8 -10 11 -37 8 -80 l-4 -65 53 0 c49 0 53 2 52 23 -1 16
-2 18 -6 5 -3 -12 -14 -18 -34 -18 l-29 0 0 69 c0 46 4 71 13 74 6 3 -5 6 -27
6 -33 1 -37 -1 -26 -14z"/>
<path d="M2016 1785 c-15 -41 -33 -76 -40 -79 -6 -2 3 -4 19 -4 17 0 24 2 18
5 -21 8 5 43 32 43 27 0 53 -35 32 -43 -6 -3 4 -6 24 -6 l35 -1 -32 68 c-18
37 -33 73 -34 80 0 6 -6 12 -13 12 -7 0 -25 -34 -41 -75z m38 -23 c-25 -6 -32
2 -22 28 l9 25 14 -25 c12 -21 12 -25 -1 -28z"/>
<path d="M2168 1853 c8 -3 12 -27 12 -68 0 -67 7 -79 53 -90 18 -5 35 -2 52 9
22 15 25 23 25 80 0 42 4 66 13 69 6 3 -1 5 -18 5 -16 0 -24 -2 -17 -5 8 -3
12 -26 12 -63 0 -48 -4 -61 -19 -70 -27 -14 -37 -13 -55 6 -20 19 -22 120 -3
127 6 3 -6 5 -28 5 -22 0 -34 -2 -27 -5z"/>
<path d="M2358 1854 c8 -4 12 -29 12 -74 0 -45 -4 -70 -12 -73 -7 -3 5 -5 27
-5 22 0 34 2 28 5 -9 3 -13 28 -13 75 0 66 1 69 22 66 29 -4 36 -37 12 -55
-17 -12 -17 -15 3 -51 13 -21 31 -38 43 -40 21 -3 20 -2 -5 38 -24 38 -25 43
-10 54 10 7 15 22 13 37 -3 22 -7 24 -68 26 -36 1 -59 0 -52 -3z"/>
<path d="M2528 1851 c10 -6 13 -28 10 -80 l-3 -71 53 0 c43 0 52 3 51 18 0 10
-3 12 -6 5 -2 -7 -18 -13 -34 -13 -26 0 -29 3 -29 35 0 28 4 35 19 35 11 0 22
-6 24 -12 3 -7 6 -3 6 8 1 17 -4 20 -24 16 -22 -4 -25 -1 -25 27 0 26 4 31 25
31 14 0 25 -4 25 -10 0 -5 5 -10 10 -10 6 0 10 7 10 15 0 12 -14 15 -62 15
-39 0 -58 -4 -50 -9z"/>
<path d="M2724 1825 c-7 -19 -21 -52 -29 -72 -9 -21 -21 -41 -28 -45 -7 -5 -2
-8 14 -8 20 0 25 5 25 23 -1 17 5 23 28 25 30 4 49 -13 41 -35 -3 -9 6 -13 26
-13 28 0 29 1 16 23 -8 12 -25 48 -38 80 -12 31 -27 57 -31 57 -5 0 -16 -16
-24 -35z m29 -45 c4 -15 0 -20 -14 -20 -20 0 -23 8 -13 34 7 20 20 13 27 -14z"/>
<path d="M2831 1843 c0 -11 3 -13 6 -5 2 6 16 12 29 12 23 0 24 -3 24 -69 0
-46 -4 -71 -12 -74 -7 -3 5 -5 27 -5 22 0 34 2 28 5 -9 3 -13 28 -13 74 0 60
2 69 18 69 10 0 23 -5 30 -12 9 -9 12 -8 12 5 0 14 -11 17 -75 17 -65 0 -75
-2 -74 -17z"/>
<path d="M784 1780 c-103 -59 -188 -189 -188 -287 0 -68 11 -80 63 -65 87 26
171 169 179 304 3 43 3 78 1 78 -2 0 -27 -13 -55 -30z"/>
<path d="M3023 1795 c-11 -30 14 -161 42 -216 38 -78 71 -116 115 -139 59 -30
78 -27 86 16 20 108 -71 262 -196 332 -36 20 -41 21 -47 7z"/>
<path d="M450 1641 c0 -24 26 -35 34 -14 8 19 -1 33 -20 33 -8 0 -14 -9 -14
-19z"/>
<path d="M570 1641 c0 -20 25 -35 41 -25 5 3 9 14 9 25 0 14 -7 19 -25 19 -18
0 -25 -5 -25 -19z"/>
<path d="M3245 1650 c-3 -5 -1 -19 5 -30 9 -17 14 -19 26 -9 21 17 18 49 -5
49 -11 0 -23 -4 -26 -10z"/>
<path d="M3380 1641 c0 -11 4 -22 9 -25 12 -8 34 21 26 34 -11 17 -35 11 -35
-9z"/>
<path d="M633 1374 c-4 -10 1 -22 12 -30 23 -17 35 -9 35 22 0 17 -5 24 -20
24 -11 0 -23 -7 -27 -16z"/>
<path d="M512 1343 c2 -10 10 -18 18 -18 8 0 16 8 18 18 2 12 -3 17 -18 17
-15 0 -20 -5 -18 -17z"/>
<path d="M3315 1350 c-8 -13 3 -30 20 -30 14 0 27 24 18 34 -10 9 -31 7 -38
-4z"/>
<path d="M1025 660 c-8 -14 3 -30 21 -30 8 0 14 9 14 20 0 21 -24 28 -35 10z"/>
<path d="M2805 660 c-8 -14 3 -30 21 -30 8 0 14 9 14 20 0 21 -24 28 -35 10z"/>
<path d="M960 606 c-56 -12 -103 -33 -153 -68 -36 -26 -26 -38 56 -69 47 -18
82 -24 147 -24 99 0 162 20 206 66 l29 30 -32 29 c-55 49 -140 61 -253 36z"/>
<path d="M2730 611 c-39 -12 -85 -38 -98 -54 -17 -20 16 -59 76 -88 90 -44
284 -26 366 34 17 12 14 16 -31 45 -27 17 -69 39 -93 47 -53 19 -184 28 -220
16z"/>
<path d="M1282 503 c2 -10 14 -19 26 -21 19 -3 23 1 20 15 -2 10 -14 19 -26
21 -19 3 -23 -1 -20 -15z"/>
<path d="M2540 500 c0 -13 7 -20 20 -20 13 0 20 7 20 20 0 13 -7 20 -20 20
-13 0 -20 -7 -20 -20z"/>
<path d="M1313 465 c-29 -8 -72 -24 -94 -36 -42 -21 -139 -105 -139 -120 0
-14 73 -29 143 -29 118 0 237 53 273 121 19 37 8 54 -45 69 -47 13 -74 12
-138 -5z"/>
<path d="M2419 471 c-14 -5 -35 -14 -47 -20 l-23 -12 23 -41 c44 -78 165 -124
304 -115 119 7 125 13 67 71 -55 55 -117 90 -200 111 -62 16 -85 17 -124 6z"/>
<path d="M1697 373 c-4 -3 -7 -15 -7 -25 0 -12 7 -18 24 -18 29 0 39 12 30 34
-6 16 -35 22 -47 9z"/>
<path d="M2124 365 c-5 -13 -9 -13 -23 -3 -11 8 -10 5 3 -10 27 -31 66 -30 66
3 0 18 -5 25 -20 25 -11 0 -23 -7 -26 -15z"/>
</g>
</svg>
