<?xml version="1.0" standalone="no"?>
<!DOCTYPE svg PUBLIC "-//W3C//DTD SVG 20010904//EN"
 "http://www.w3.org/TR/2001/REC-SVG-20010904/DTD/svg10.dtd">
<svg version="1.0" xmlns="http://www.w3.org/2000/svg"
 width="385.000000pt" height="300.000000pt" viewBox="0 0 385.000000 300.000000"
 preserveAspectRatio="xMidYMid meet">

<g transform="translate(0.000000,300.000000) scale(0.100000,-0.100000)"
fill="#000000" stroke="none">
<path d="M1466 2920 c-216 -27 -420 -101 -599 -216 -45 -30 -66 -48 -61 -57
21 -33 467 -557 475 -557 5 0 32 12 60 26 127 64 315 82 463 44 239 -61 428
-250 493 -491 23 -87 22 -252 -1 -339 -62 -226 -231 -403 -453 -476 -79 -26
-101 -29 -213 -28 -110 0 -135 3 -205 28 -44 15 -95 37 -114 48 -19 12 -36 17
-40 11 -3 -5 -111 -134 -239 -286 -128 -153 -230 -282 -227 -287 12 -20 198
-123 288 -159 344 -140 734 -142 1075 -5 577 233 943 821 891 1432 -11 133
-22 191 -60 316 -109 358 -367 668 -699 840 -207 107 -393 155 -625 161 -77 2
-171 0 -209 -5z"/>
</g>
</svg>
